{"glyphs":{":":{"x_min":0,"x_max":336,"ha":336,"o":"m 166 153 q 207 153 232 130 q 257 108 257 70 q 257 34 232 11 q 207 -11 167 -11 q 128 -11 104 10 q 80 32 80 66 q 80 104 104 128 q 128 153 166 153 z m 185 310 q 144 310 118 333 q 93 355 93 393 q 93 429 118 451 q 144 474 184 474 q 223 474 247 453 q 271 432 271 397 q 271 359 247 334 q 223 310 185 310 z"},"$":{"x_min":0,"x_max":419,"ha":419,"o":"m 181 159 q 128 159 85 204 q 42 250 42 293 q 42 300 57 306 q 72 311 93 311 q 116 311 125 306 q 134 301 140 286 q 151 256 166 244 q 182 232 206 232 q 232 232 245 244 q 259 256 259 278 q 259 313 194 332 q 182 335 175 337 q 118 354 90 385 q 61 417 61 464 q 61 517 94 554 q 127 591 186 605 l 193 672 q 194 687 204 693 q 213 699 234 699 q 252 699 260 689 q 268 678 269 653 l 270 604 q 312 585 342 539 q 372 493 372 453 q 372 441 363 433 q 354 425 342 425 q 309 425 292 469 q 288 479 286 484 q 276 508 260 519 q 244 531 221 531 q 195 531 180 513 q 166 495 166 463 q 166 440 186 423 q 207 406 258 387 q 324 363 347 337 q 371 312 371 269 q 371 231 342 199 q 312 168 261 152 l 257 87 q 256 73 249 65 q 242 57 229 57 q 198 57 188 64 q 179 71 179 96 l 179 104 z"},"?":{"x_min":0,"x_max":600,"ha":600,"o":"m 357 181 l 283 182 q 277 182 273 186 q 269 190 269 197 q 269 201 270 203 q 270 205 271 207 l 333 347 q 340 362 353 390 q 401 491 401 536 q 401 577 383 599 q 366 622 334 622 q 303 622 269 597 q 234 572 200 525 q 169 481 155 442 q 154 441 154 440 q 148 426 142 422 q 135 419 118 419 l 43 419 q 35 419 31 422 q 26 424 26 429 q 26 448 48 496 q 71 544 106 598 q 142 653 189 684 q 237 716 282 716 q 320 716 378 700 q 436 684 481 659 q 515 640 536 604 q 556 567 556 525 q 556 466 477 354 q 439 301 420 270 q 405 245 392 212 q 380 181 359 181 l 358 181 z m 308 143 q 340 143 361 121 q 381 99 381 62 q 381 27 357 2 q 333 -23 299 -23 q 260 -23 237 -3 q 214 17 214 50 q 214 87 242 115 q 271 143 308 143 z"},"<":{"x_min":0,"x_max":833,"ha":833,"o":"m 704 574 l 704 484 l 248 298 l 704 112 l 704 23 l 129 259 l 129 337 z"},"'":{"x_min":0,"x_max":163,"ha":163,"o":"m 42 701 l 122 701 l 122 429 l 42 429 z"},"=":{"x_min":0,"x_max":833,"ha":833,"o":"m 124 238 l 709 238 l 709 157 l 124 157 z m 124 440 l 709 440 l 709 358 l 124 358 z"},"a":{"x_min":0,"x_max":481,"ha":481,"o":"m 432 219 l 432 83 q 432 48 435 15 q 435 9 435 8 q 435 -6 420 -12 q 405 -17 349 -17 l 320 13 q 316 17 313 18 q 311 20 308 20 q 306 20 299 16 q 255 -13 194 -13 q 120 -13 74 24 q 28 62 28 121 q 28 182 78 219 q 129 255 221 262 l 298 267 q 314 269 319 278 q 323 287 323 325 q 323 369 307 393 q 291 418 262 418 q 236 418 211 393 q 187 368 171 326 q 169 321 167 313 q 153 272 128 272 q 74 272 56 278 q 37 284 37 300 q 37 308 47 329 q 54 341 57 349 q 59 353 62 362 q 77 400 93 422 q 115 451 143 465 q 172 478 212 478 q 268 478 316 465 q 365 452 390 431 q 413 412 423 381 q 432 350 432 279 z m 315 172 q 315 192 312 202 q 308 211 301 211 q 245 211 195 172 q 144 134 144 86 q 144 67 155 57 q 165 48 186 48 q 234 48 274 84 q 315 120 315 172 z"},"L":{"x_min":0,"x_max":445,"ha":445,"o":"m 64 45 l 55 630 l 55 647 q 55 680 66 688 q 77 696 114 696 q 172 696 191 686 q 210 675 210 647 q 210 642 208 621 q 196 526 196 437 l 196 425 l 199 146 q 199 125 212 118 q 224 111 278 111 l 393 112 l 401 112 q 419 112 425 101 q 430 89 430 62 q 430 19 422 10 q 413 1 367 0 l 112 -3 q 87 -3 76 8 q 65 20 64 45 z"},"3":{"x_min":0,"x_max":630,"ha":630,"o":"m 468 324 q 526 308 558 270 q 590 233 590 181 q 590 92 510 31 q 431 -30 312 -30 q 196 -30 113 39 q 30 107 30 198 q 30 227 44 236 q 58 245 104 245 q 139 245 153 238 q 167 230 167 211 l 167 200 q 167 135 199 94 q 231 53 280 53 q 332 53 385 101 q 439 148 439 191 q 439 218 409 234 q 379 250 323 254 q 317 254 307 255 q 257 258 257 311 q 257 327 292 341 q 314 350 326 356 q 384 388 421 440 q 459 492 459 534 q 459 568 440 588 q 421 607 387 607 q 333 607 286 571 q 238 536 192 461 q 185 450 176 429 q 160 389 138 389 q 87 389 66 397 q 46 405 46 424 q 46 432 59 467 q 62 479 65 486 q 82 533 96 562 q 110 591 127 614 q 160 658 201 679 q 242 700 295 700 q 434 700 521 648 q 609 595 609 512 q 609 459 575 413 q 541 368 468 324 z"},";":{"x_min":0,"x_max":336,"ha":336,"o":"m 192 320 q 151 320 126 343 q 101 365 101 403 q 101 438 126 461 q 151 483 191 483 q 230 483 254 462 q 278 441 278 407 q 278 369 254 344 q 230 320 192 320 z m 107 108 q 109 129 119 136 q 129 142 153 142 q 196 142 213 136 q 230 131 230 117 q 230 112 229 104 q 228 96 225 79 l 204 -36 q 200 -61 194 -68 q 188 -74 169 -74 q 122 -74 107 -68 q 92 -62 92 -44 q 92 -38 93 -32 q 94 -25 94 -24 z"},"J":{"x_min":0,"x_max":366,"ha":366,"o":"m 1 93 q 1 111 5 119 q 9 128 17 128 q 20 128 38 112 q 55 96 78 96 q 128 96 149 127 q 171 159 171 233 q 171 358 166 496 q 161 633 161 645 q 161 669 174 676 q 186 683 225 683 q 278 683 292 670 q 305 656 305 597 l 305 549 q 305 501 303 386 q 302 271 302 203 q 302 92 262 41 q 223 -10 137 -10 q 99 -10 65 -5 q 31 0 20 6 q 9 12 5 25 q 1 38 1 79 z"},"V":{"x_min":0,"x_max":579,"ha":579,"o":"m 291 167 l 404 546 q 416 587 427 631 q 438 676 440 679 q 445 688 454 691 q 462 694 484 694 l 493 694 l 556 693 q 568 693 573 688 q 578 684 578 674 q 578 668 575 657 q 572 646 566 630 l 358 17 q 353 0 348 -3 q 343 -7 326 -7 l 239 -7 q 222 -7 215 -2 q 208 3 202 25 l 134 250 q 95 377 47 518 q -2 658 -2 670 q -2 678 6 681 q 14 684 33 684 l 120 684 q 163 684 169 650 q 172 637 174 629 z"},"\"":{"x_min":0,"x_max":314,"ha":314,"o":"m 193 701 l 273 701 l 273 429 l 193 429 z m 42 701 l 122 701 l 122 429 l 42 429 z"},"7":{"x_min":0,"x_max":487,"ha":487,"o":"m 114 12 l 320 536 q 322 542 323 547 q 325 551 325 554 q 325 560 319 562 q 313 564 294 564 l 272 564 q 253 564 207 567 q 161 570 134 570 q 104 570 72 566 q 40 562 37 562 q 17 562 10 574 q 4 586 4 638 q 4 662 12 671 q 20 680 40 680 q 43 680 50 680 q 57 679 61 679 l 437 680 q 452 680 458 676 q 463 672 467 660 l 482 606 q 483 603 483 599 q 484 596 484 592 q 484 584 478 570 q 477 566 476 565 l 249 25 q 247 21 245 14 q 235 -11 209 -11 l 132 -11 q 118 -11 115 -9 q 111 -7 111 -1 q 111 1 112 4 q 112 7 114 12 z"},"S":{"x_min":0,"x_max":597,"ha":597,"o":"m 472 268 q 525 254 552 221 q 580 189 580 141 q 580 108 561 82 q 542 56 489 20 q 448 -7 399 -23 q 350 -38 303 -38 q 254 -38 197 -18 q 141 2 99 34 q 68 58 52 89 q 35 121 35 155 q 35 181 71 199 q 107 217 152 217 q 174 217 177 186 q 179 166 182 153 q 196 90 217 61 q 238 31 269 31 q 293 31 319 42 q 345 53 371 75 q 394 94 406 112 q 419 130 419 143 q 419 159 408 168 q 397 178 368 187 l 213 234 q 118 263 76 308 q 34 354 34 429 q 34 478 50 534 q 66 591 89 627 q 115 667 147 684 q 179 701 230 701 q 319 701 400 678 q 480 654 508 623 q 530 598 543 542 q 555 485 555 405 q 555 354 545 337 q 536 319 510 318 l 471 317 l 467 317 q 445 317 434 326 q 424 335 424 356 q 424 483 396 546 q 369 609 314 609 q 265 609 232 553 q 199 498 199 411 q 199 372 218 352 q 237 332 294 316 z"},"}":{"x_min":0,"x_max":500,"ha":500,"o":"m 74 721 l 96 721 q 152 721 184 716 q 215 710 237 697 q 265 681 276 650 q 287 620 287 550 l 287 429 q 287 359 312 330 q 338 302 400 302 q 403 302 410 302 q 417 303 421 303 l 421 216 q 417 216 410 216 q 403 217 400 217 q 338 217 313 188 q 287 159 287 89 l 287 -32 q 287 -102 276 -132 q 265 -162 237 -178 q 216 -191 184 -197 q 152 -202 96 -202 l 74 -202 l 74 -116 q 78 -116 85 -117 q 93 -117 96 -117 q 149 -117 168 -97 q 187 -76 187 -11 l 187 106 q 187 181 209 213 q 231 245 287 259 q 231 272 209 304 q 187 336 187 412 l 187 530 q 187 594 168 615 q 150 635 97 635 q 94 635 86 634 q 78 634 74 634 z"},"Z":{"x_min":0,"x_max":542,"ha":542,"o":"m 534 581 q 536 576 537 570 q 538 565 538 560 q 538 547 407 403 q 275 259 161 116 l 453 114 q 480 114 494 91 q 507 69 507 22 q 507 6 497 2 q 487 -2 459 -2 l 137 -6 q 122 -6 106 -6 q 90 -7 89 -7 q 73 -7 65 -3 q 56 0 48 9 q 36 23 24 51 q 13 79 13 94 q 13 146 307 486 l 358 545 l 266 545 q 255 545 238 544 q 221 544 215 544 q 167 544 137 548 q 107 551 97 558 q 85 566 73 593 q 61 620 61 641 q 61 657 74 662 q 88 668 132 669 l 472 676 q 488 676 497 669 q 507 662 512 647 z"},"x":{"x_min":0,"x_max":465,"ha":465,"o":"m 364 0 q 347 0 335 8 q 323 15 310 36 l 227 166 l 150 39 l 149 37 q 123 -5 88 -6 l 10 -9 q -3 -9 -7 -6 q -11 -3 -11 5 q -11 9 -6 16 q -4 19 -3 20 l 144 227 q 148 232 149 236 q 151 239 151 242 q 151 243 148 247 q 145 252 139 259 l 6 430 q 3 434 1 438 q 0 442 0 446 q 0 456 10 464 q 21 471 36 471 l 55 471 q 98 471 115 468 q 133 465 144 458 q 153 452 167 433 q 181 415 196 388 l 238 317 l 331 443 q 341 457 358 465 q 375 473 392 473 l 450 472 l 462 472 q 471 472 475 471 q 478 469 478 466 q 478 464 476 460 q 474 457 470 451 l 320 261 q 313 253 311 249 q 308 244 308 242 q 308 238 310 235 q 311 231 314 227 l 384 128 q 406 98 436 63 q 466 28 466 19 q 466 8 460 4 q 455 0 433 0 z"},")":{"x_min":0,"x_max":370,"ha":370,"o":"m 167 295 q 167 366 156 432 q 146 498 124 564 l 120 577 q 89 667 89 683 q 89 692 111 703 q 133 713 154 713 q 188 713 217 639 q 223 623 227 613 q 259 532 275 446 q 291 360 291 263 q 291 160 272 71 q 254 -19 216 -98 q 187 -159 158 -196 q 130 -233 114 -233 q 95 -233 60 -207 q 26 -180 26 -162 q 26 -153 48 -124 q 69 -95 81 -73 q 125 11 146 103 q 167 194 167 295 z"},"&":{"x_min":0,"x_max":779,"ha":779,"o":"m 560 -12 l 527 15 q 522 19 517 21 q 512 23 508 23 q 501 23 474 11 q 369 -36 272 -36 q 162 -36 95 16 q 29 67 29 153 q 29 212 70 269 q 110 326 192 382 q 159 428 144 465 q 129 502 129 538 q 129 614 177 664 q 225 714 299 714 q 379 714 431 668 q 483 623 483 553 q 483 507 459 464 q 435 422 361 350 q 398 298 433 259 q 467 219 504 185 q 538 225 548 326 q 549 333 549 337 q 551 354 561 361 q 570 368 596 369 l 753 372 q 764 372 770 362 q 775 351 775 329 q 775 270 728 266 q 701 263 684 258 q 661 251 657 225 q 656 217 655 213 q 651 195 637 167 q 623 139 601 106 l 687 16 q 690 13 691 10 q 693 7 693 4 q 693 -6 685 -10 q 678 -15 662 -15 l 653 -15 q 641 -15 620 -19 q 600 -22 591 -22 q 583 -22 574 -19 q 565 -17 560 -12 z m 295 454 q 326 477 344 509 q 362 541 362 571 q 362 598 351 611 q 340 623 316 623 q 291 623 276 606 q 262 589 262 559 q 262 534 270 508 q 278 482 295 454 z m 263 271 q 219 243 197 212 q 175 182 175 150 q 175 113 198 97 q 222 80 273 80 q 308 80 342 88 q 375 96 410 112 q 370 148 333 188 q 297 228 263 271 z"},"_":{"x_min":0,"x_max":500,"ha":500,"o":"m 0 -152 l 500 -152 l 500 -236 l 0 -236 z"},"v":{"x_min":0,"x_max":458,"ha":458,"o":"m 441 461 q 452 460 458 455 q 464 451 464 443 q 464 442 464 440 q 463 439 462 435 l 299 26 q 291 4 276 -1 q 261 -6 194 -6 q 173 -6 161 1 q 148 8 143 22 l 7 427 q 5 432 5 436 q 4 440 4 444 q 4 452 15 455 q 27 458 74 458 q 120 458 128 426 q 130 419 131 415 l 228 96 q 257 210 313 345 q 330 384 334 397 q 349 444 359 453 q 369 463 389 463 l 400 463 z"},"O":{"x_min":0,"x_max":664,"ha":664,"o":"m 350 606 q 271 606 228 521 q 184 437 184 283 q 184 178 222 116 q 260 53 323 53 q 393 53 436 136 q 480 218 480 353 q 480 469 444 538 q 409 606 350 606 z m 30 332 q 30 408 49 480 q 69 553 102 603 q 135 654 181 678 q 226 702 290 702 q 447 702 540 601 q 633 500 633 328 q 633 164 558 72 q 484 -20 350 -20 q 204 -20 117 75 q 30 169 30 332 z"},"(":{"x_min":0,"x_max":370,"ha":370,"o":"m 281 683 q 281 667 250 576 l 246 564 q 224 498 214 432 q 203 366 203 295 q 203 202 221 118 q 239 34 276 -47 q 292 -83 318 -119 q 344 -155 344 -162 q 344 -180 310 -207 q 275 -233 256 -233 q 240 -233 212 -196 q 184 -159 154 -98 q 116 -19 98 71 q 79 160 79 263 q 79 360 95 446 q 110 532 143 613 q 147 623 153 640 q 182 713 216 713 q 237 713 259 703 q 281 692 281 683 z"},"C":{"x_min":0,"x_max":609,"ha":609,"o":"m 506 226 l 565 226 q 578 226 584 221 q 590 217 590 207 q 590 181 563 134 q 537 87 493 37 q 465 5 432 -9 q 399 -23 353 -23 q 194 -23 115 56 q 36 136 36 295 q 36 469 100 586 q 165 704 256 704 q 336 704 407 685 q 479 667 506 640 q 532 614 552 547 q 571 481 571 409 q 571 391 563 381 q 555 372 539 371 l 492 369 l 484 369 q 461 369 456 415 q 454 431 452 441 q 439 523 408 570 q 377 617 335 617 q 276 617 230 523 q 184 429 184 293 q 184 167 210 110 q 236 54 293 54 q 329 54 366 79 q 404 104 445 157 q 458 174 471 198 q 485 226 506 226 z"},"W":{"x_min":0,"x_max":871,"ha":871,"o":"m 127 21 l 79 273 q 63 355 51 421 q 38 487 34 507 q 23 557 8 604 q -7 651 -7 653 q -7 670 6 677 q 19 684 59 684 q 141 684 148 626 q 149 623 149 622 q 178 417 194 326 q 210 235 226 183 q 305 397 339 559 q 341 568 342 570 q 348 594 361 605 q 374 615 399 615 l 482 613 q 522 612 538 519 q 540 507 541 501 q 560 395 578 318 q 596 240 618 171 q 653 253 683 361 q 712 470 734 595 q 735 603 737 615 q 748 681 774 681 q 777 681 781 680 q 784 680 789 678 l 854 660 q 865 657 870 651 q 874 646 874 634 q 874 628 872 618 q 871 609 867 597 l 733 92 q 717 34 703 13 q 689 -8 668 -8 q 590 -8 559 5 q 528 18 518 60 l 425 464 l 304 41 q 303 37 301 29 q 292 -4 260 -4 l 170 -4 q 146 -4 138 2 q 129 7 127 21 z"},"A":{"x_min":0,"x_max":564,"ha":564,"o":"m 216 253 l 342 251 q 347 251 352 255 q 356 258 356 263 q 356 265 354 272 q 354 274 354 275 l 283 559 l 201 292 q 199 286 198 280 q 197 273 197 269 q 197 263 203 258 q 208 253 216 253 z m 25 -10 q 12 -10 6 -6 q 0 -2 0 6 q 0 9 1 13 q 1 17 3 22 l 201 679 q 207 697 215 703 q 223 710 238 710 l 356 707 q 379 706 385 702 q 390 697 395 674 l 550 26 q 551 20 552 17 q 552 14 552 12 q 552 2 548 -3 q 543 -8 535 -8 l 440 -7 q 429 -7 423 -2 q 417 2 414 14 l 388 110 q 381 132 366 142 q 350 152 320 152 l 315 152 l 200 149 q 176 148 165 140 q 154 133 148 114 l 116 19 q 115 16 113 10 q 107 -10 90 -10 z"},"f":{"x_min":0,"x_max":327,"ha":327,"o":"m 104 119 l 103 278 l 103 289 q 103 299 99 302 q 95 304 80 304 l 49 304 q 30 304 21 314 q 11 324 11 344 q 11 370 31 381 q 52 393 96 393 l 102 393 l 105 519 q 105 532 106 557 q 108 648 116 672 q 127 706 152 729 q 177 751 202 751 q 251 751 284 743 q 316 734 336 717 q 358 697 375 657 q 391 617 391 586 q 391 573 373 565 q 355 558 324 558 q 308 558 302 562 q 296 565 292 580 l 277 632 q 273 645 267 652 q 261 660 254 660 q 245 660 240 647 q 234 634 234 612 l 234 598 q 234 583 232 554 q 231 543 231 537 l 227 422 l 227 413 q 227 403 230 400 q 234 397 248 397 q 281 397 294 388 q 306 379 306 358 q 306 337 297 327 q 289 316 269 312 q 260 311 247 310 q 225 308 225 289 l 226 182 q 227 143 229 92 q 231 40 231 27 q 231 4 223 -5 q 214 -14 195 -14 q 141 -14 121 -2 q 101 10 101 44 q 101 49 103 74 q 104 100 104 119 z"},"Q":{"x_min":0,"x_max":637,"ha":637,"o":"m 379 -16 l 319 -19 l 301 -19 q 174 -19 103 73 q 31 166 31 332 q 31 508 102 604 q 172 700 302 700 q 447 700 526 606 q 604 512 604 339 q 604 264 585 197 q 566 130 534 87 q 525 76 508 58 q 484 33 484 22 q 484 21 489 15 q 493 9 495 6 l 551 -74 q 554 -78 555 -82 q 557 -86 557 -88 q 557 -92 554 -97 q 550 -101 544 -104 l 481 -134 q 478 -135 474 -136 q 471 -137 469 -137 q 464 -137 458 -128 q 456 -125 454 -123 z m 179 301 q 179 190 215 126 q 250 61 311 61 q 383 61 427 141 q 470 221 470 359 q 470 476 431 551 q 392 626 333 626 q 271 626 225 532 q 179 439 179 301 z"},"w":{"x_min":0,"x_max":681,"ha":681,"o":"m 3 441 q 1 446 1 451 q 0 456 0 460 q 0 470 11 474 q 22 479 46 479 q 114 479 125 424 q 127 417 128 412 l 190 134 q 190 132 191 127 q 193 114 204 114 q 216 114 223 143 q 225 148 225 150 l 295 412 q 302 438 312 445 q 323 451 350 451 q 410 451 420 381 q 422 368 423 361 l 459 156 q 459 153 460 149 q 463 131 473 131 q 488 131 495 159 q 497 167 498 172 l 569 440 q 576 464 589 472 q 603 480 636 480 q 662 480 673 474 q 684 467 684 453 q 684 443 676 423 q 668 402 666 395 l 566 47 q 558 19 548 8 q 538 -3 523 -3 q 522 -3 522 -2 q 521 -2 521 -3 l 423 4 q 400 5 389 22 q 377 40 369 87 l 348 206 q 346 216 343 222 q 339 228 335 228 q 324 228 316 197 q 315 194 315 192 l 266 11 q 261 -6 253 -12 q 246 -18 220 -19 l 150 -21 l 148 -21 q 133 -21 125 -11 q 116 -2 108 26 z"},"-":{"x_min":0,"x_max":398,"ha":398,"o":"m 76 191 q 62 192 57 197 q 52 202 52 215 l 53 275 q 53 284 59 288 q 64 292 82 292 l 320 290 q 332 290 339 283 q 346 277 346 265 l 347 216 q 347 197 342 191 q 336 184 324 184 l 322 184 z"},"E":{"x_min":0,"x_max":532,"ha":532,"o":"m 100 -11 q 78 -11 67 4 q 57 20 57 54 q 57 69 63 179 q 69 288 69 382 q 69 522 61 640 q 60 654 60 656 q 60 675 69 682 q 78 688 102 688 q 104 688 115 688 q 220 681 350 681 q 410 681 464 683 q 473 683 475 683 q 498 683 505 676 q 512 669 512 634 q 512 586 425 583 q 413 582 407 582 l 258 577 q 218 575 210 569 q 202 563 202 530 l 202 525 l 201 403 l 201 399 q 201 388 203 386 q 206 384 217 384 l 223 384 l 404 385 q 420 385 437 386 q 440 386 441 386 q 459 386 463 376 q 467 365 467 330 q 467 274 385 270 q 370 270 360 269 l 226 262 q 210 261 203 255 q 195 250 195 238 l 196 122 q 196 104 200 99 q 205 94 225 94 l 359 94 q 390 94 419 96 q 424 96 425 96 q 444 96 452 89 q 460 81 460 63 q 460 14 440 1 q 420 -12 341 -12 l 319 -12 z"},"s":{"x_min":0,"x_max":456,"ha":456,"o":"m 117 205 q 71 221 53 244 q 34 268 34 309 q 34 381 82 433 q 130 485 200 485 q 238 485 290 465 q 343 446 369 424 q 391 406 407 373 q 423 339 423 316 q 423 295 404 286 q 385 277 338 277 q 308 277 305 316 q 304 325 304 329 q 301 369 284 394 q 266 419 241 419 q 207 419 183 379 q 158 340 158 284 q 158 271 166 264 q 174 257 211 247 l 340 212 q 390 198 413 175 q 436 151 436 115 q 436 56 378 18 q 321 -19 227 -19 q 142 -19 85 26 q 29 71 29 130 q 29 146 47 155 q 65 164 98 164 q 125 164 141 125 q 146 113 150 106 q 165 74 186 57 q 208 39 231 39 q 259 39 282 63 q 305 87 305 115 q 305 143 248 161 q 232 165 224 168 z"},">":{"x_min":0,"x_max":833,"ha":833,"o":"m 129 574 l 704 337 l 704 259 l 129 23 l 129 112 l 585 298 l 129 484 z"},"l":{"x_min":0,"x_max":211,"ha":211,"o":"m 42 71 l 41 694 q 41 733 47 740 q 54 747 81 747 q 140 747 154 743 q 169 738 169 720 q 169 713 167 699 q 166 685 166 678 l 163 129 q 163 103 166 70 q 168 37 168 31 q 168 11 156 4 q 145 -3 106 -3 q 65 -3 54 1 q 42 5 42 25 z"},"8":{"x_min":0,"x_max":641,"ha":641,"o":"m 193 179 q 193 118 227 85 q 260 52 323 52 q 387 52 424 86 q 460 121 460 181 q 460 238 425 271 q 391 303 330 303 q 264 303 228 271 q 193 239 193 179 z m 343 626 q 283 626 245 589 q 207 553 207 493 q 207 443 237 415 q 268 387 320 387 q 375 387 413 425 q 451 462 451 516 q 451 565 421 595 q 391 626 343 626 z m 150 355 q 103 382 78 420 q 54 459 54 507 q 54 588 118 651 q 182 714 262 714 q 284 714 342 702 q 400 691 456 673 q 526 650 564 605 q 603 561 603 503 q 603 451 573 409 q 542 368 485 341 q 544 312 577 266 q 610 219 610 166 q 610 85 529 25 q 449 -36 335 -36 q 202 -36 118 28 q 34 91 34 192 q 34 246 63 287 q 93 329 150 355 z"},"\\":{"x_min":0,"x_max":370,"ha":370,"o":"m 330 -93 q 325 -93 317 -87 q 310 -82 307 -75 l 6 690 q 5 693 3 699 q 1 705 1 705 q 1 706 4 708 q 7 709 10 709 l 71 709 q 78 709 86 704 q 94 699 96 693 l 397 -69 q 398 -74 399 -76 q 399 -78 399 -80 q 399 -85 396 -89 q 393 -93 390 -93 z"},"e":{"x_min":0,"x_max":486,"ha":486,"o":"m 180 264 l 289 275 q 312 277 320 282 q 329 288 329 300 q 329 347 311 376 q 292 405 263 405 q 227 405 195 361 q 163 317 163 276 q 163 268 165 266 q 167 264 174 264 z m 179 170 q 170 168 166 163 q 162 158 162 146 q 162 107 185 81 q 207 54 240 54 q 265 54 292 70 q 318 85 336 111 q 338 114 342 120 q 363 152 388 152 q 394 152 406 151 q 417 151 423 151 q 424 151 427 151 q 430 152 431 152 q 448 152 456 147 q 465 143 465 134 q 465 126 455 111 q 446 96 420 64 q 382 18 350 1 q 318 -16 275 -16 q 229 -16 177 1 q 125 18 97 40 q 65 65 50 109 q 34 152 34 214 q 34 332 83 406 q 132 481 208 481 q 260 481 320 461 q 380 440 405 415 q 431 389 448 340 q 465 292 465 243 q 465 209 403 201 q 399 200 398 200 z"},"b":{"x_min":0,"x_max":512,"ha":512,"o":"m 158 205 q 158 113 179 84 q 200 54 255 54 q 306 54 333 101 q 359 148 359 239 q 359 322 342 358 q 325 394 286 394 q 257 394 229 379 q 201 365 184 340 q 170 320 164 297 q 158 273 158 231 z m 120 -8 l 73 -8 q 57 -8 53 -1 q 49 5 49 30 l 49 52 l 46 468 q 45 578 39 691 q 37 714 37 719 q 37 735 46 742 q 54 748 76 748 q 82 748 94 748 q 105 747 110 747 q 116 747 126 748 q 137 749 141 749 q 160 749 165 743 q 170 736 170 717 q 170 703 167 674 q 165 645 165 630 l 165 438 q 204 451 223 455 q 243 459 258 459 q 355 459 419 397 q 484 335 484 236 q 484 119 418 52 q 353 -15 237 -15 q 212 -15 188 -4 q 165 7 163 7 q 159 7 144 0 q 129 -8 120 -8 z"},"%":{"x_min":0,"x_max":856,"ha":856,"o":"m 675 279 q 637 279 612 227 q 588 175 588 93 q 588 57 603 37 q 618 18 645 18 q 683 18 707 67 q 731 116 731 196 q 731 236 716 257 q 702 279 675 279 z m 490 134 q 490 221 533 282 q 576 343 632 343 q 649 343 690 331 q 731 318 768 301 q 794 289 810 251 q 825 213 825 161 q 825 74 777 23 q 729 -28 647 -28 q 573 -28 532 15 q 490 58 490 134 z m 170 -9 l 551 632 q 506 613 467 604 q 428 594 392 594 l 382 594 q 377 594 373 594 q 368 595 362 595 q 367 582 369 569 q 371 557 371 544 q 371 457 323 405 q 275 353 193 353 q 115 353 71 397 q 28 440 28 519 q 28 597 68 656 q 108 715 161 715 q 179 715 198 705 q 217 696 220 696 q 227 696 243 709 q 260 723 271 723 q 296 723 319 697 q 324 691 327 688 q 345 670 368 661 q 391 652 417 652 q 447 652 490 664 q 532 675 560 691 q 573 699 599 718 q 625 737 637 737 q 647 737 655 729 q 662 722 662 712 q 662 702 645 671 q 642 666 641 664 l 243 -51 q 239 -58 235 -60 q 232 -63 228 -63 q 215 -63 190 -47 q 165 -30 165 -22 q 165 -20 166 -17 q 167 -13 170 -9 z m 268 606 q 248 608 242 615 q 236 622 236 640 q 227 646 220 648 q 214 650 209 650 q 177 650 150 595 q 124 541 124 472 q 124 435 140 415 q 156 395 185 395 q 224 395 247 441 q 270 487 270 564 q 270 574 268 603 z"},"m":{"x_min":0,"x_max":776,"ha":776,"o":"m 41 28 l 45 182 q 47 256 51 327 q 54 398 54 399 q 54 407 53 421 q 52 436 52 443 q 52 467 63 476 q 74 485 102 485 q 139 485 151 481 q 163 477 163 460 l 163 430 q 177 438 191 441 q 206 445 226 445 q 308 445 350 431 q 392 417 412 383 l 448 403 q 481 421 504 427 q 528 434 554 434 q 646 434 690 394 q 735 353 735 269 l 735 263 l 731 45 q 730 12 719 4 q 709 -3 674 -3 l 619 -2 q 611 -2 608 2 q 605 6 605 17 l 605 24 l 610 99 q 612 131 613 162 q 614 193 614 225 q 614 308 600 338 q 585 367 550 367 q 526 367 500 350 q 473 333 457 308 q 448 294 444 274 q 440 255 440 222 l 439 131 l 439 82 q 439 81 439 77 q 440 64 440 51 q 440 30 429 22 q 418 15 383 15 l 344 15 q 329 15 325 19 q 321 22 321 34 l 321 40 l 324 98 q 325 109 326 132 q 331 221 331 265 q 331 331 318 354 q 305 378 273 378 q 241 378 214 364 q 187 351 172 327 q 164 313 159 281 q 155 250 155 197 l 155 178 l 156 67 l 156 38 q 156 9 150 1 q 144 -6 121 -6 l 112 -6 l 53 -5 q 46 -5 43 -2 q 40 1 40 9 q 40 11 41 17 q 41 23 41 28 z"},"#":{"x_min":0,"x_max":769,"ha":769,"o":"m 346 416 l 302 292 l 427 292 l 471 416 z m 359 713 l 452 713 l 377 500 l 499 500 l 575 713 l 668 713 l 593 500 l 735 500 l 706 416 l 563 416 l 519 293 l 670 293 l 640 209 l 490 209 l 414 -3 l 321 -3 l 397 209 l 274 209 l 197 -3 l 104 -3 l 180 209 l 34 209 l 64 293 l 209 293 l 253 416 l 99 416 l 129 500 l 283 500 z"},",":{"x_min":0,"x_max":312,"ha":312,"o":"m 104 111 q 106 136 116 144 q 125 151 148 151 q 190 151 208 144 q 227 138 227 122 q 227 118 226 109 q 225 100 222 77 l 201 -57 q 196 -88 190 -95 q 184 -101 164 -101 q 119 -101 104 -94 q 89 -88 89 -67 q 89 -61 90 -52 q 91 -44 91 -43 z"},"n":{"x_min":0,"x_max":514,"ha":514,"o":"m 60 0 q 49 0 44 6 q 39 13 39 28 q 39 34 47 147 q 55 261 55 365 q 55 386 52 412 q 49 438 49 444 q 49 460 58 466 q 67 471 96 471 q 115 471 128 471 q 140 471 153 470 l 155 429 l 194 432 q 209 434 222 434 q 235 435 247 435 q 289 435 323 425 q 356 415 392 392 q 443 359 460 327 q 477 295 477 235 q 477 146 467 46 q 464 21 464 15 q 464 -5 456 -13 q 449 -21 428 -21 q 390 -21 369 -14 q 348 -6 348 7 q 348 13 351 39 q 361 134 361 218 q 361 300 344 335 q 328 370 289 370 q 260 370 230 357 q 201 344 184 323 q 169 305 163 271 q 157 236 157 169 q 157 102 160 40 q 160 30 160 28 q 160 12 153 6 q 146 0 117 0 z"},"h":{"x_min":0,"x_max":505,"ha":505,"o":"m 41 4 l 42 146 l 42 190 q 42 240 41 412 q 41 512 40 571 l 40 687 q 40 692 40 702 q 39 712 39 717 q 39 740 52 746 q 66 753 106 753 q 145 753 157 747 q 170 741 170 719 q 170 715 168 702 q 160 633 160 567 q 160 539 162 511 q 163 483 166 453 q 192 457 209 458 q 226 460 238 460 q 355 460 411 406 q 466 351 466 235 q 466 122 460 30 q 460 24 460 24 q 459 13 443 7 q 427 0 400 0 q 363 0 351 6 q 340 13 340 37 q 340 64 341 112 q 342 161 342 183 l 342 269 q 341 333 325 360 q 309 387 272 387 q 210 387 185 337 q 160 286 160 127 q 160 69 165 17 q 166 7 166 6 q 166 -13 143 -21 q 120 -29 67 -29 q 51 -29 46 -25 q 41 -21 41 -1 z"},"z":{"x_min":0,"x_max":456,"ha":456,"o":"m 38 36 q 35 41 34 47 q 32 54 32 60 q 32 69 36 78 q 39 86 46 94 l 273 365 q 275 368 277 371 q 278 374 278 377 q 278 381 273 383 q 269 385 249 385 l 82 383 q 57 383 45 396 q 33 408 33 435 q 33 451 46 460 q 59 469 83 469 l 98 469 l 280 475 q 315 476 350 479 q 385 481 386 481 q 413 481 431 462 q 449 443 449 418 q 449 406 440 392 q 432 377 406 349 l 177 93 l 368 92 q 401 92 412 81 q 423 70 423 45 q 423 19 415 9 q 406 -2 378 -2 l 367 -2 l 204 -4 q 166 -4 123 -12 q 81 -19 78 -19 q 73 -19 68 -15 q 63 -11 58 -1 z"},"B":{"x_min":0,"x_max":590,"ha":590,"o":"m 202 412 l 202 408 q 202 390 209 381 q 216 372 230 372 q 245 372 283 383 q 320 394 359 411 q 396 427 415 449 q 434 470 434 496 q 434 538 389 564 q 344 591 272 591 q 226 591 217 578 q 208 565 205 494 z m 199 121 l 199 98 q 199 82 205 76 q 211 71 227 71 q 250 71 291 83 q 332 95 359 111 q 385 126 400 148 q 415 169 415 191 q 415 226 376 243 q 337 261 261 261 l 226 261 q 211 261 206 255 q 200 248 200 230 z m 409 321 q 486 307 526 271 q 566 236 566 182 q 566 87 457 28 q 349 -31 170 -31 q 100 -31 78 -22 q 55 -14 55 8 q 55 11 56 26 q 64 116 64 207 l 64 225 l 61 554 q 61 579 57 604 q 53 629 53 631 q 53 660 100 673 q 146 686 255 686 q 391 686 476 628 q 562 570 562 482 q 562 428 524 388 q 486 348 409 321 z"},"K":{"x_min":0,"x_max":623,"ha":623,"o":"m 64 46 l 61 630 q 61 634 60 640 q 59 647 59 650 q 59 664 66 671 q 73 679 86 679 q 86 679 92 680 q 97 680 102 680 l 181 681 l 183 681 q 199 681 208 671 q 216 661 216 642 q 216 630 211 597 q 207 563 206 543 l 198 377 l 361 550 q 379 569 408 603 q 488 693 558 693 q 589 693 605 688 q 621 682 621 671 q 621 664 609 647 q 597 630 576 609 l 326 355 l 574 52 q 575 51 578 48 q 588 37 588 29 q 588 16 560 5 q 533 -7 502 -7 q 468 -7 416 54 l 415 55 l 209 296 l 202 8 q 202 -6 189 -13 q 176 -20 150 -20 q 139 -20 122 -19 q 104 -18 97 -18 q 78 -18 71 -9 q 64 0 64 39 z"},"R":{"x_min":0,"x_max":637,"ha":637,"o":"m 206 351 q 206 327 215 321 q 224 315 250 315 q 327 315 371 355 q 415 395 415 464 q 415 526 378 563 q 341 599 277 599 q 238 599 221 589 q 204 579 204 555 z m 104 -21 q 102 -21 93 -21 q 84 -22 77 -22 q 64 -22 60 -19 q 56 -15 56 0 q 56 0 61 86 q 66 172 66 257 q 66 311 64 383 q 63 454 60 539 q 58 595 47 654 q 45 669 45 672 q 45 689 64 695 q 83 700 141 700 q 356 700 467 638 q 578 576 578 455 q 578 397 548 354 q 519 311 457 279 l 548 132 q 568 100 599 61 q 629 22 629 15 q 629 2 593 0 q 591 0 590 0 l 493 -3 q 481 -3 472 12 q 469 16 468 18 l 400 107 q 354 169 325 191 q 296 212 259 214 l 217 216 l 216 216 q 205 216 200 197 q 195 178 195 131 q 195 125 195 108 q 196 92 196 83 l 198 10 l 198 3 q 198 -10 194 -14 q 190 -19 180 -19 z"},"T":{"x_min":0,"x_max":463,"ha":463,"o":"m 177 15 l 176 110 q 175 235 171 335 q 168 436 164 481 q 163 495 162 517 q 161 551 131 552 l 54 553 q 31 554 23 572 q 15 590 15 642 q 15 662 21 669 q 26 676 47 679 q 47 679 52 679 q 130 685 219 685 l 255 685 q 269 685 298 686 q 328 686 344 686 q 413 686 428 678 q 444 670 444 626 l 444 623 q 444 583 437 572 q 430 560 405 559 l 334 555 q 319 554 315 547 q 310 539 310 517 q 310 514 311 500 q 312 450 312 407 l 312 294 l 315 2 q 315 -20 309 -27 q 303 -34 279 -34 q 207 -34 192 -28 q 178 -21 177 15 z"},"P":{"x_min":0,"x_max":579,"ha":579,"o":"m 199 369 q 199 341 206 334 q 212 326 232 326 q 313 326 364 367 q 415 408 415 474 q 415 532 381 566 q 346 600 287 600 q 246 600 223 590 q 200 580 200 562 z m 66 73 l 62 406 q 61 535 48 650 q 46 666 46 668 q 46 691 73 699 q 100 706 202 706 q 292 706 359 689 q 425 673 471 639 q 520 603 546 554 q 573 504 573 451 q 573 401 550 360 q 527 318 483 289 q 442 263 387 247 q 332 231 280 231 l 253 231 q 225 231 215 223 q 205 215 205 191 l 205 176 q 205 171 205 162 q 204 153 204 149 l 204 14 q 204 -4 190 -10 q 175 -15 140 -15 l 120 -15 q 113 -15 105 -16 q 96 -16 94 -16 q 79 -16 71 -9 q 63 -2 63 11 q 63 16 64 37 q 66 57 66 73 z"},"|":{"x_min":0,"x_max":500,"ha":500,"o":"m 207 764 l 294 764 l 294 -236 l 207 -236 z"},"t":{"x_min":0,"x_max":338,"ha":338,"o":"m 114 307 q 114 312 112 316 q 110 319 108 319 q 102 319 94 318 q 87 318 85 318 q 49 318 27 329 q 6 340 6 359 q 6 377 17 390 q 29 402 53 409 q 66 413 84 417 q 111 424 111 441 l 111 456 l 111 574 q 111 587 110 604 q 109 621 109 625 q 109 648 128 656 q 146 665 197 665 q 226 665 236 658 q 246 651 246 630 q 246 629 245 620 q 234 546 234 455 q 234 442 235 433 q 235 425 236 425 l 288 425 q 290 425 292 425 q 294 426 295 426 q 307 426 314 419 q 322 413 322 402 q 322 372 314 356 q 307 341 281 333 l 241 321 q 234 319 231 315 q 229 311 229 298 l 229 291 l 229 258 q 229 247 229 229 q 228 211 228 206 q 228 205 229 191 q 229 177 229 163 q 229 124 234 79 q 239 35 239 32 q 239 9 220 -1 q 201 -12 161 -12 q 134 -12 124 -2 q 114 8 114 34 q 114 35 114 42 q 115 74 115 104 z"},"M":{"x_min":0,"x_max":806,"ha":806,"o":"m 56 11 l 59 629 l 59 635 q 59 683 68 692 q 78 700 127 700 q 211 700 237 688 q 262 676 277 631 l 399 258 l 537 615 q 553 657 564 671 q 574 685 592 685 q 598 685 601 685 q 604 685 608 684 l 736 672 l 746 58 l 746 45 q 746 15 733 7 q 719 -1 676 -1 l 668 -1 q 621 -1 620 58 q 619 69 619 76 l 607 511 q 571 435 544 351 q 540 338 538 334 l 453 93 q 453 92 452 88 q 438 48 393 48 q 360 48 347 56 q 334 65 323 95 l 174 505 l 178 24 q 178 -8 162 -16 q 146 -23 103 -23 q 77 -23 67 -15 q 56 -7 56 11 z"},"g":{"x_min":0,"x_max":502,"ha":502,"o":"m 274 -45 q 254 -41 240 -38 q 226 -35 225 -35 q 222 -35 213 -39 q 205 -42 193 -48 l 117 -89 q 103 -96 99 -102 q 94 -108 94 -116 q 94 -136 114 -144 q 134 -152 185 -152 q 281 -152 338 -137 q 395 -122 395 -96 q 395 -72 344 -61 q 338 -60 335 -59 z m 348 287 q 348 335 325 368 q 303 400 269 400 q 226 400 195 360 q 164 320 164 262 q 164 214 182 189 q 200 165 234 165 q 280 165 314 200 q 348 236 348 287 z m 87 -7 l 59 19 q 56 21 51 26 q 32 41 32 53 q 32 62 37 71 q 42 80 51 86 l 113 132 q 82 160 67 194 q 52 228 52 270 q 52 308 64 350 q 76 391 97 428 q 113 457 135 470 q 157 483 188 483 q 206 483 228 479 q 250 474 275 465 l 330 533 q 342 548 353 555 q 364 562 375 562 q 392 562 413 547 q 434 532 434 519 q 434 517 430 510 q 425 504 418 497 l 361 441 q 408 417 436 368 q 463 319 463 261 q 463 187 413 143 q 364 100 278 100 q 271 100 257 102 q 243 103 236 103 q 227 103 215 93 q 203 82 203 76 q 203 62 265 51 q 316 42 350 34 q 450 9 479 -17 q 509 -42 509 -96 q 509 -134 492 -159 q 475 -184 436 -202 q 391 -223 331 -235 q 271 -247 207 -247 q 93 -247 26 -211 q -41 -176 -41 -117 q -41 -93 -27 -76 q -14 -59 32 -35 z"},"j":{"x_min":0,"x_max":288,"ha":288,"o":"m 63 614 q 63 644 87 667 q 111 690 144 690 q 174 690 193 670 q 211 651 211 619 q 211 583 191 562 q 170 540 137 540 q 105 540 84 562 q 63 584 63 614 z m 95 -23 l 92 184 q 91 239 87 301 q 83 364 83 373 q 83 390 82 410 q 81 431 81 435 q 81 452 86 459 q 91 467 103 467 l 187 469 q 201 469 206 461 q 212 453 212 431 q 212 428 212 415 q 210 333 210 251 q 210 227 212 181 q 213 135 214 117 l 217 -57 l 217 -65 q 217 -172 162 -228 q 107 -283 1 -283 q -39 -283 -64 -274 q -90 -265 -90 -251 q -90 -248 -89 -245 q -89 -241 -88 -238 l -72 -180 q -70 -174 -65 -170 q -61 -167 -53 -167 q -47 -167 -24 -175 q -1 -183 16 -183 q 61 -183 78 -157 q 95 -131 95 -47 z"},"i":{"x_min":0,"x_max":211,"ha":211,"o":"m 176 599 q 176 566 153 542 q 131 518 100 518 q 69 518 50 539 q 31 560 31 594 q 31 627 51 650 q 71 672 101 672 q 132 672 154 651 q 176 630 176 599 z m 162 50 q 162 45 162 36 q 162 -3 128 -3 q 76 -3 62 1 q 47 6 47 23 q 47 28 48 43 q 49 58 49 66 l 47 321 q 47 351 44 384 q 42 416 42 419 q 42 439 54 446 q 66 453 104 453 q 145 453 156 449 q 168 444 168 425 l 168 379 z"},"y":{"x_min":0,"x_max":526,"ha":526,"o":"m 360 50 q 341 15 316 0 q 291 -14 248 -14 q 126 -14 84 46 q 41 107 41 291 q 41 361 45 405 q 48 449 55 457 q 62 466 79 471 q 96 476 123 476 q 152 476 163 468 q 174 460 174 439 q 174 427 167 352 q 160 276 160 215 q 160 136 178 97 q 196 57 232 57 q 259 57 285 77 q 311 98 333 137 q 353 171 361 213 q 369 254 369 342 q 369 378 364 419 q 363 431 363 434 q 363 452 372 458 q 381 465 409 465 q 462 465 474 457 q 486 449 486 409 q 486 396 483 333 q 480 271 480 219 l 480 176 q 480 29 474 -46 q 468 -121 454 -156 q 432 -212 386 -242 q 341 -272 279 -272 q 204 -272 150 -219 q 96 -166 96 -97 q 96 -78 106 -72 q 116 -65 159 -65 q 205 -65 211 -91 q 213 -99 215 -104 q 231 -157 246 -175 q 261 -193 284 -193 q 323 -193 343 -153 q 362 -114 362 -33 q 362 -14 360 33 q 360 44 360 50 z"},"@":{"x_min":0,"x_max":1000,"ha":1000,"o":"m 573 138 q 546 96 511 76 q 475 56 425 56 q 351 56 311 98 q 272 141 272 220 q 272 334 339 413 q 407 492 502 492 q 545 492 575 475 q 604 458 623 423 l 650 475 l 725 475 l 653 189 q 652 187 652 183 q 649 169 649 165 q 649 146 662 135 q 675 124 696 124 q 721 124 748 139 q 776 154 800 180 q 835 217 854 267 q 872 316 872 372 q 872 496 781 573 q 689 650 542 650 q 475 650 417 635 q 359 620 312 589 q 224 534 176 447 q 128 360 128 254 q 128 102 230 10 q 333 -81 503 -81 q 584 -81 661 -57 q 738 -33 803 12 l 836 -36 q 763 -91 680 -119 q 598 -147 507 -147 q 413 -147 335 -124 q 258 -100 198 -54 q 123 3 85 80 q 48 157 48 255 q 48 335 73 408 q 99 480 148 541 q 220 628 321 674 q 421 719 545 719 q 626 719 699 697 q 771 675 823 635 q 888 585 920 520 q 952 455 952 373 q 952 294 920 226 q 889 157 830 110 q 796 83 757 69 q 717 55 675 55 q 623 55 598 75 q 573 95 573 136 z m 602 345 q 595 386 572 409 q 549 431 512 431 q 450 431 406 368 q 362 306 362 217 q 362 169 384 143 q 406 117 447 117 q 491 117 527 150 q 562 182 575 234 z"},".":{"x_min":0,"x_max":312,"ha":312,"o":"m 154 153 q 195 153 220 130 q 245 108 245 70 q 245 34 220 11 q 195 -11 155 -11 q 116 -11 92 10 q 68 32 68 66 q 68 104 92 128 q 116 153 154 153 z"},"p":{"x_min":0,"x_max":519,"ha":519,"o":"m 163 9 l 164 -112 q 164 -169 162 -201 q 159 -232 155 -238 q 148 -247 121 -253 q 94 -260 63 -260 q 50 -260 44 -254 q 39 -248 39 -233 q 39 -231 40 -216 q 52 -31 52 222 q 52 330 51 366 q 50 402 48 423 q 47 434 43 456 q 39 477 39 486 q 39 501 47 508 q 56 515 75 515 l 84 515 l 146 517 q 158 517 163 512 q 168 507 169 494 l 170 447 q 195 454 220 457 q 245 460 271 460 q 370 460 430 398 q 490 336 490 234 q 490 127 428 56 q 367 -14 281 -14 q 237 -14 208 -9 q 179 -3 163 9 z m 169 112 l 169 108 q 169 80 185 70 q 200 60 247 60 q 309 60 335 99 q 361 139 361 235 q 361 310 336 346 q 311 382 259 382 q 241 382 222 377 q 203 372 188 363 q 180 358 176 353 q 173 348 173 340 l 173 327 z"},"X":{"x_min":0,"x_max":580,"ha":580,"o":"m -14 35 l 177 316 q 181 322 183 326 q 185 331 185 334 q 185 339 176 355 l 175 357 l 10 650 q 9 652 8 656 q 7 659 7 660 q 7 666 11 668 q 15 671 22 671 l 144 669 q 164 669 177 647 l 177 647 l 279 464 q 283 457 286 454 q 289 451 292 451 q 295 451 299 455 q 303 458 307 463 l 468 671 q 469 673 471 675 q 477 685 489 685 l 494 685 l 608 681 q 614 681 618 678 q 622 674 622 670 q 622 667 620 663 q 619 659 615 654 l 377 334 q 373 328 371 323 q 369 319 369 314 q 369 310 371 305 q 372 300 375 295 l 528 25 q 529 24 529 22 q 530 20 530 15 q 530 7 525 3 q 521 -2 513 -2 l 406 1 q 394 1 389 4 q 384 6 377 18 l 265 202 l 119 1 q 118 -1 116 -4 q 111 -16 99 -16 q 93 -16 72 -10 q 50 -4 33 -4 q 25 -4 12 -5 q -1 -6 -7 -6 q -18 -6 -24 -3 q -30 0 -30 5 q -30 13 -18 29 q -16 33 -14 35 z"},"*":{"x_min":0,"x_max":500,"ha":500,"o":"m 290 503 q 323 493 369 481 q 422 468 422 453 q 422 435 406 408 q 389 382 377 382 q 371 382 336 413 q 301 444 268 468 q 288 397 295 371 q 302 345 302 341 q 302 331 288 326 q 274 321 244 321 q 226 321 217 325 q 208 330 208 339 q 208 343 216 384 q 224 425 228 464 q 201 440 169 407 q 137 375 131 375 q 118 375 99 401 q 81 427 81 445 q 81 457 127 472 q 172 487 209 506 q 183 513 144 521 q 78 535 78 552 q 78 570 94 596 q 111 622 123 622 q 128 622 162 593 q 195 564 228 543 q 222 582 213 622 q 203 662 203 664 q 203 674 214 679 q 226 684 251 684 q 276 684 287 679 q 298 674 298 664 q 298 662 289 622 q 279 583 274 544 q 300 567 332 599 q 364 630 369 630 q 383 630 401 604 q 419 578 419 559 q 419 547 375 534 q 326 519 290 503 z"},"Y":{"x_min":0,"x_max":567,"ha":567,"o":"m 221 25 l 223 236 q 223 256 219 270 q 215 285 205 300 l -19 651 q -21 655 -23 659 q -25 664 -25 666 q -25 674 -2 678 q 21 683 60 683 q 81 683 92 678 q 103 674 115 656 l 278 408 l 407 649 q 408 650 409 652 q 420 673 441 674 l 564 678 q 569 678 574 674 q 579 670 579 666 q 579 664 577 659 q 575 653 571 647 l 381 321 q 380 320 378 316 q 362 289 362 259 l 360 36 q 360 7 347 1 q 333 -5 272 -5 q 241 -5 231 1 q 221 7 221 25 z"},"c":{"x_min":0,"x_max":495,"ha":495,"o":"m 245 43 q 272 43 298 62 q 323 82 352 126 q 354 129 357 133 q 374 161 398 161 q 400 161 411 161 q 422 160 431 160 q 460 160 469 155 q 478 150 478 139 q 478 127 464 103 q 451 80 427 51 q 392 9 360 -8 q 327 -25 283 -25 q 154 -25 95 34 q 35 93 35 221 q 35 345 79 413 q 122 481 201 481 q 268 481 333 458 q 399 434 428 403 q 447 382 456 347 q 465 312 465 259 q 465 242 459 237 q 454 232 435 232 q 385 232 370 239 q 356 245 353 273 q 347 336 322 375 q 297 415 265 415 q 224 415 194 354 q 165 292 165 200 q 165 125 186 84 q 207 43 245 43 z"},"!":{"x_min":0,"x_max":336,"ha":336,"o":"m 106 231 l 78 676 l 78 678 q 78 689 85 694 q 91 699 106 699 l 222 700 q 230 700 236 695 q 242 690 242 685 q 242 678 238 642 q 217 453 217 273 q 217 258 217 241 q 218 225 218 224 q 218 208 214 202 q 210 196 202 196 l 125 194 q 125 194 124 193 q 124 193 123 193 q 108 193 106 222 q 106 227 106 231 z m 175 -19 q 135 -19 107 4 q 78 28 78 62 q 78 102 104 130 q 130 157 170 157 q 210 157 236 135 q 261 112 261 77 q 261 41 234 11 q 207 -19 175 -19 z"},"/":{"x_min":0,"x_max":370,"ha":370,"o":"m 63 -75 q 60 -82 53 -87 q 46 -93 41 -93 l -20 -93 q -23 -93 -26 -89 q -29 -85 -29 -80 q -29 -76 -28 -73 q -28 -71 -27 -69 l 275 693 q 277 699 285 704 q 292 709 299 709 l 361 709 q 364 709 367 708 q 370 706 370 705 l 364 690 z"},"[":{"x_min":0,"x_max":370,"ha":370,"o":"m 95 410 l 96 607 q 96 645 91 674 q 90 678 90 679 q 90 691 96 697 q 102 702 115 702 q 118 702 143 699 q 168 697 191 697 l 216 697 q 221 697 239 696 q 256 696 270 696 q 287 696 303 698 q 319 701 319 701 q 331 701 336 693 q 341 686 341 668 q 341 651 337 643 q 333 634 326 634 l 308 634 l 221 638 q 219 552 215 422 q 211 255 211 236 q 211 228 215 98 q 218 -31 221 -157 l 308 -154 q 313 -154 319 -153 q 325 -153 326 -153 q 333 -153 337 -162 q 341 -170 341 -187 q 341 -204 336 -212 q 331 -220 319 -220 q 319 -220 303 -218 q 287 -216 270 -216 q 256 -216 239 -216 q 221 -217 216 -217 l 191 -217 q 168 -217 143 -219 q 118 -221 115 -221 q 101 -221 95 -216 q 90 -211 90 -199 q 90 -198 91 -194 q 96 -165 96 -127 l 95 70 q 95 98 95 155 q 94 211 94 240 q 94 269 95 325 q 95 382 95 410 z"},"6":{"x_min":0,"x_max":613,"ha":613,"o":"m 491 416 q 457 416 452 458 q 451 468 450 473 q 441 533 409 567 q 377 602 331 602 q 298 602 271 581 q 245 560 222 517 q 204 481 191 440 q 178 399 178 384 q 178 375 183 369 q 188 362 194 362 q 197 362 253 375 q 309 389 360 389 q 459 389 521 334 q 582 278 582 191 q 582 94 512 30 q 442 -33 333 -33 q 182 -33 108 47 q 34 128 34 292 q 34 489 104 596 q 174 702 304 702 q 414 702 499 627 q 583 552 583 462 q 583 436 573 426 q 564 416 532 416 z m 337 288 q 250 288 215 272 q 181 255 181 210 q 181 140 218 89 q 255 38 303 38 q 355 38 395 89 q 435 139 435 200 q 435 242 410 265 q 384 288 337 288 z"},"r":{"x_min":0,"x_max":338,"ha":338,"o":"m 74 -8 q 60 -8 55 -3 q 51 1 51 19 l 51 308 q 51 382 46 445 q 46 454 46 455 q 46 468 52 477 q 58 485 66 485 q 74 485 88 483 q 102 481 108 481 q 110 481 117 482 q 124 483 128 483 q 144 483 150 478 q 156 473 156 458 q 156 452 155 430 q 154 409 154 393 l 154 354 l 190 421 q 201 441 217 447 q 232 452 272 452 q 299 452 311 425 q 323 397 323 337 q 323 297 311 277 q 299 258 275 258 q 261 258 250 268 q 240 277 235 294 q 233 300 232 311 q 229 334 219 334 q 201 334 180 274 q 158 214 158 139 q 158 109 162 71 q 165 32 165 24 q 165 5 157 -1 q 148 -8 114 -8 z"},"2":{"x_min":0,"x_max":609,"ha":609,"o":"m 332 115 l 564 103 q 580 102 585 95 q 590 88 590 63 q 590 24 578 8 q 567 -9 539 -9 q 535 -9 521 -8 q 506 -8 495 -8 l 391 -9 q 379 -9 356 -8 q 333 -8 322 -8 q 251 -8 172 -15 q 94 -22 87 -22 q 64 -22 56 -9 q 49 3 49 40 q 49 59 53 68 q 57 77 66 84 q 67 85 80 91 q 145 121 205 159 q 250 187 287 224 q 325 261 354 307 q 393 368 414 420 q 435 472 435 508 q 435 550 408 576 q 382 602 339 602 q 279 602 236 551 q 192 499 160 391 q 156 377 153 352 q 146 298 94 298 q 62 298 49 306 q 37 314 37 336 q 37 382 48 431 q 60 480 82 533 q 122 627 170 663 q 218 698 300 698 q 434 698 507 650 q 580 602 580 514 q 580 429 517 327 q 454 225 332 115 z"},"{":{"x_min":0,"x_max":500,"ha":500,"o":"m 427 721 l 427 634 q 423 634 415 634 q 407 635 404 635 q 351 635 332 615 q 313 594 313 530 l 313 412 q 313 336 292 304 q 270 272 214 259 q 270 246 291 214 q 313 182 313 106 l 313 -11 q 313 -76 332 -96 q 352 -117 405 -117 q 408 -117 416 -117 q 423 -116 427 -116 l 427 -202 l 396 -202 q 346 -202 315 -196 q 284 -190 263 -178 q 235 -162 224 -131 q 213 -101 213 -32 l 213 89 q 213 159 187 188 q 162 217 100 217 q 97 217 90 216 q 83 216 79 216 l 79 303 q 83 303 90 302 q 97 302 100 302 q 162 302 187 331 q 213 359 213 429 l 213 550 q 213 621 224 651 q 235 681 263 697 q 285 710 316 716 q 348 721 405 721 z"},"9":{"x_min":0,"x_max":644,"ha":644,"o":"m 279 324 q 309 324 344 333 q 378 342 404 357 q 430 372 440 388 q 450 404 450 431 q 450 501 416 551 q 381 600 333 600 q 272 600 232 548 q 193 496 193 416 q 193 370 215 347 q 236 324 279 324 z m 453 291 q 404 256 352 238 q 300 220 249 220 q 157 220 99 284 q 42 348 42 451 q 42 558 116 625 q 189 693 306 693 q 447 693 527 597 q 608 502 608 334 q 608 257 585 186 q 563 115 521 59 q 491 19 442 -2 q 394 -23 331 -23 q 271 -23 223 -9 q 174 5 136 34 q 98 62 76 96 q 54 129 54 155 q 54 164 63 170 q 71 177 83 177 q 95 177 111 176 q 126 175 130 175 q 186 175 197 141 q 198 139 198 137 q 211 99 240 77 q 268 56 305 56 q 370 56 411 120 q 452 184 453 291 z"}," ":{"x_min":0,"x_max":322,"ha":322,"o":""},"I":{"x_min":0,"x_max":301,"ha":301,"o":"m 81 218 q 81 439 70 625 q 69 646 69 648 q 69 672 95 684 q 121 696 175 696 q 201 696 213 689 q 225 682 225 667 q 225 665 224 654 q 216 563 216 454 q 216 411 218 320 q 219 230 219 183 q 219 167 219 136 q 218 105 218 90 q 218 65 220 38 q 221 30 221 29 q 221 10 211 3 q 201 -3 167 -3 q 100 -3 88 4 q 77 11 77 46 q 77 62 79 120 q 81 177 81 218 z"},"H":{"x_min":0,"x_max":637,"ha":637,"o":"m 453 0 q 441 0 437 5 q 433 11 433 33 l 431 251 q 431 265 425 271 q 419 277 405 277 l 401 277 l 234 271 q 218 270 214 266 q 209 261 209 245 l 207 48 q 207 16 189 7 q 171 -1 117 -1 q 85 -1 75 6 q 64 14 64 37 q 64 39 64 47 q 65 56 65 63 q 65 84 64 113 q 64 142 64 150 l 64 210 l 63 479 q 62 562 49 659 q 46 684 46 690 q 46 700 75 705 q 104 710 166 710 q 197 710 205 705 q 213 700 213 682 q 213 675 209 618 q 206 561 206 511 l 206 495 l 207 416 q 207 403 210 400 q 213 396 221 396 l 326 396 q 396 396 416 400 q 436 405 436 417 q 436 418 436 421 q 435 440 435 461 l 435 598 q 435 617 434 636 q 433 656 433 657 q 433 677 440 685 q 447 692 468 692 l 486 692 q 492 692 510 692 q 529 693 542 693 q 569 693 576 689 q 583 686 583 673 q 583 671 582 660 q 567 544 567 387 l 567 18 q 567 9 557 5 q 546 0 527 0 z"},"4":{"x_min":0,"x_max":611,"ha":611,"o":"m 496 22 q 496 -4 487 -11 q 478 -18 455 -18 l 433 -18 q 387 -18 376 -12 q 366 -7 366 13 l 366 122 q 366 134 362 136 q 358 139 345 139 l 60 138 q 30 138 18 153 q 6 168 6 204 q 6 242 215 525 l 235 553 l 244 565 q 326 677 342 686 q 349 689 383 692 q 417 694 467 694 q 490 694 499 687 q 509 680 509 661 q 509 657 508 645 q 507 632 507 625 l 506 272 q 506 259 511 253 q 516 247 527 247 l 581 247 q 590 247 597 239 q 604 230 604 219 l 603 177 q 602 158 595 150 q 589 142 574 142 l 508 142 q 501 142 499 139 q 496 135 496 123 z m 378 247 l 373 566 q 283 451 226 364 q 170 277 170 256 q 170 251 175 249 q 180 246 189 246 z"},"~":{"x_min":0,"x_max":833,"ha":833,"o":"m 747 383 l 747 293 q 697 258 651 241 q 604 224 561 224 q 540 224 516 228 q 492 232 468 241 q 456 245 431 254 q 327 290 275 290 q 235 290 190 271 q 145 253 87 212 l 87 303 q 139 338 186 356 q 232 373 276 373 q 306 373 337 367 q 368 361 419 344 q 426 342 440 336 q 520 308 562 308 q 604 308 648 326 q 693 344 747 383 z"},"D":{"x_min":0,"x_max":613,"ha":613,"o":"m 64 479 l 64 482 q 64 556 53 635 q 51 652 51 655 q 51 681 83 693 q 116 704 194 704 q 374 704 479 611 q 583 519 583 359 q 583 179 492 70 q 400 -40 251 -40 q 204 -40 132 -26 q 116 -23 108 -22 q 101 -21 88 -20 q 59 -16 59 -8 q 59 -6 62 22 q 64 51 64 78 z m 197 176 q 197 174 197 166 q 198 134 198 106 q 198 68 205 56 q 211 44 229 44 q 323 44 389 136 q 456 229 456 371 q 456 485 411 544 q 366 603 279 603 q 237 603 219 591 q 200 580 200 553 q 200 549 198 473 q 197 397 197 325 z"},"^":{"x_min":0,"x_max":1000,"ha":1000,"o":"m 447 713 l 553 713 l 795 439 l 694 439 l 500 633 l 305 439 l 204 439 z"},"0":{"x_min":0,"x_max":625,"ha":625,"o":"m 319 -19 q 186 -19 109 78 q 32 176 32 347 q 32 439 58 516 q 83 592 132 645 q 161 677 194 689 q 228 702 287 702 q 354 702 401 688 q 448 673 479 644 q 534 592 563 513 q 593 435 593 341 q 593 182 516 82 q 439 -19 319 -19 z m 335 620 q 260 620 219 536 q 178 451 178 297 q 178 192 214 129 q 250 67 310 67 q 376 67 418 149 q 460 232 460 364 q 460 480 426 550 q 391 620 335 620 z"},"F":{"x_min":0,"x_max":519,"ha":519,"o":"m 68 13 l 57 650 l 57 653 q 57 677 68 687 q 80 697 108 697 l 464 694 q 497 694 506 688 q 516 681 517 664 l 519 627 l 519 620 q 519 576 442 574 q 438 574 437 574 l 254 572 q 229 572 220 566 q 212 560 211 543 l 208 393 l 208 386 q 208 369 213 364 q 219 359 242 359 l 457 362 q 477 362 484 352 q 491 343 491 316 l 491 311 q 491 270 480 260 q 468 250 438 250 l 360 250 q 315 250 274 242 q 232 235 205 222 l 206 34 l 206 20 q 206 2 201 -3 q 196 -9 183 -10 l 89 -15 l 87 -15 q 78 -15 73 -8 q 68 -1 68 13 z"},"`":{"x_min":0,"x_max":500,"ha":500,"o":"m 345 518 l 301 518 l 148 598 q 121 613 111 624 q 102 635 102 651 q 102 670 114 683 q 126 695 146 695 q 161 695 176 686 q 191 676 212 655 z"},"k":{"x_min":0,"x_max":481,"ha":481,"o":"m 46 59 l 44 379 q 42 531 35 676 q 34 699 34 703 q 34 732 46 740 q 58 749 108 749 q 145 749 156 741 q 168 733 168 711 q 168 704 165 632 q 162 561 162 497 l 162 455 l 162 404 q 162 399 163 389 q 164 321 171 274 l 261 389 q 298 436 335 455 q 372 475 435 475 q 449 475 460 470 q 471 465 471 459 q 471 448 417 394 q 373 351 346 322 l 274 245 q 329 167 396 93 q 462 20 462 11 q 462 2 444 -3 q 426 -8 393 -8 q 343 -8 300 46 q 285 64 276 75 q 263 89 244 114 q 211 157 193 157 q 181 157 175 147 q 169 137 169 118 l 169 114 l 171 47 l 171 31 q 171 1 165 -7 q 160 -15 141 -15 q 84 -15 64 -11 q 44 -6 44 4 q 44 7 45 25 q 46 43 46 59 z"},"u":{"x_min":0,"x_max":525,"ha":525,"o":"m 359 29 q 326 3 302 -7 q 277 -18 252 -18 q 228 -18 199 -12 q 171 -5 143 6 q 113 18 98 33 q 83 49 72 78 q 60 108 53 195 q 46 282 46 402 q 46 442 53 456 q 60 470 77 470 q 89 470 102 469 q 115 468 116 468 q 126 468 141 470 q 155 472 160 472 q 169 472 172 469 q 175 467 175 457 q 175 453 169 387 q 164 322 164 262 q 164 155 184 102 q 204 50 245 50 q 297 50 328 106 q 358 162 358 261 q 358 340 348 420 q 346 436 346 439 q 346 456 355 463 q 364 470 388 470 q 408 470 430 471 q 437 471 438 471 q 461 471 470 466 q 479 461 479 448 q 479 446 478 432 q 470 293 470 117 q 470 82 474 48 q 478 14 478 14 q 478 2 470 -6 q 463 -14 451 -14 q 420 -14 394 -17 q 389 -17 388 -17 q 376 -17 369 -13 q 363 -9 363 -1 l 363 5 l 363 8 z"},"]":{"x_min":0,"x_max":370,"ha":370,"o":"m 271 70 l 269 -127 q 269 -165 274 -194 q 275 -198 275 -199 q 275 -211 269 -216 q 264 -221 250 -221 q 248 -221 222 -219 q 197 -217 174 -217 l 150 -217 q 146 -217 127 -216 q 108 -216 95 -216 q 78 -216 62 -218 q 46 -220 46 -220 q 35 -220 30 -212 q 25 -205 25 -187 q 25 -169 28 -161 q 32 -153 39 -153 q 40 -153 46 -153 q 52 -154 57 -154 l 145 -157 q 147 -68 151 65 q 155 226 155 245 q 155 253 151 383 q 147 513 145 638 l 57 634 l 39 634 q 32 634 28 642 q 25 650 25 668 q 25 686 30 694 q 35 701 46 701 q 46 701 62 698 q 78 696 95 696 q 108 696 127 696 q 146 697 150 697 l 174 697 q 197 697 222 699 q 248 702 250 702 q 263 702 269 697 q 275 691 275 679 q 275 678 274 674 q 269 645 269 607 l 271 410 q 271 382 271 325 q 272 269 272 240 q 272 211 271 155 q 271 98 271 70 z"},"U":{"x_min":0,"x_max":648,"ha":648,"o":"m 441 72 q 407 26 370 4 q 334 -18 293 -18 q 241 -18 185 11 q 129 40 104 81 q 81 119 72 197 q 62 274 62 445 q 62 543 66 583 q 70 622 79 636 q 87 649 101 654 q 114 659 155 659 q 188 659 198 650 q 209 640 209 614 q 209 609 208 594 q 207 579 207 568 l 205 345 l 205 316 q 205 177 223 121 q 240 64 282 64 q 316 64 350 95 q 383 126 407 180 q 425 222 433 279 q 441 336 441 433 l 441 472 l 439 641 q 439 670 449 683 q 459 696 482 696 q 484 696 489 695 q 494 695 496 695 l 548 695 q 571 695 580 685 q 588 675 588 648 q 588 645 587 638 q 587 631 587 627 l 582 526 q 578 439 576 358 q 574 278 574 209 l 574 99 l 573 22 q 573 -2 558 -9 q 542 -16 497 -16 q 470 -16 461 -10 q 451 -4 449 12 z"},"o":{"x_min":0,"x_max":530,"ha":530,"o":"m 279 414 q 227 414 195 359 q 164 305 164 212 q 164 132 188 90 q 211 47 255 47 q 308 47 343 100 q 378 152 378 234 q 378 315 351 365 q 324 414 279 414 z m 28 240 q 28 349 78 416 q 128 482 211 482 q 254 482 312 467 q 369 452 409 429 q 460 400 482 358 q 503 315 503 238 q 503 117 445 52 q 387 -12 277 -12 q 164 -12 96 56 q 28 125 28 240 z"},"N":{"x_min":0,"x_max":616,"ha":616,"o":"m 52 50 l 65 660 q 65 678 95 686 q 126 693 200 693 q 236 693 246 688 q 255 684 255 662 q 255 594 298 493 l 298 492 l 414 214 q 416 210 418 208 q 421 206 425 206 q 429 206 432 211 q 434 215 434 223 l 439 659 q 439 684 453 690 q 466 697 505 697 q 546 697 556 693 q 566 690 566 677 q 566 673 565 662 q 564 651 564 644 l 564 633 l 564 624 l 557 494 q 551 386 548 313 q 546 240 546 177 l 546 15 q 546 -6 525 -12 q 504 -18 447 -18 q 425 -18 410 -16 q 395 -14 383 -9 l 167 458 l 172 29 q 172 7 162 2 q 152 -3 109 -3 q 70 -3 61 1 q 51 5 51 18 q 51 19 51 21 q 52 36 52 50 z"},"+":{"x_min":0,"x_max":833,"ha":833,"o":"m 375 596 l 458 596 l 458 339 l 709 339 l 709 258 l 458 258 l 458 0 l 375 0 l 375 258 l 124 258 l 124 339 l 375 339 z"},"G":{"x_min":0,"x_max":637,"ha":637,"o":"m 369 339 l 581 351 l 583 351 q 593 351 597 342 q 602 333 602 315 q 602 267 586 208 q 569 149 544 107 q 507 46 454 12 q 401 -21 342 -21 q 319 -21 284 -14 q 249 -7 205 7 q 175 17 153 28 q 131 40 118 54 q 89 84 68 171 q 47 259 47 363 q 47 515 101 610 q 155 705 241 705 q 312 705 383 685 q 454 665 493 635 q 531 605 554 549 q 578 492 578 434 q 578 417 571 409 q 564 402 545 402 l 536 402 l 481 402 q 451 402 442 459 q 440 471 439 476 q 425 546 399 580 q 373 614 332 614 q 270 614 229 528 q 189 443 189 305 q 189 183 217 115 q 245 47 295 47 q 335 47 385 104 q 434 161 456 238 l 382 234 l 375 234 q 351 234 342 245 q 333 256 333 289 q 333 317 340 328 q 347 338 369 339 z"},"q":{"x_min":0,"x_max":532,"ha":532,"o":"m 163 226 q 163 146 182 102 q 200 58 234 58 q 281 58 321 121 q 361 185 361 272 q 361 332 331 371 q 301 411 261 411 q 211 411 187 365 q 163 319 163 226 z m 369 62 q 329 20 299 4 q 270 -12 235 -12 q 144 -12 88 57 q 33 126 33 243 q 33 355 78 417 q 123 479 203 479 q 244 479 284 468 q 324 456 363 433 l 362 459 l 362 462 q 362 471 367 474 q 373 478 387 478 l 415 478 q 462 478 472 473 q 483 469 483 450 l 483 433 l 483 408 l 487 -213 l 487 -227 q 487 -252 479 -260 q 472 -267 453 -267 q 405 -267 387 -263 q 368 -258 368 -247 q 368 -244 370 -227 q 378 -138 378 -50 q 378 -24 376 3 q 374 31 369 62 z"},"d":{"x_min":0,"x_max":523,"ha":523,"o":"m 359 252 q 359 287 355 316 q 352 346 348 354 q 338 375 314 391 q 291 407 269 407 q 218 407 193 348 q 167 289 167 171 q 167 112 188 80 q 208 48 247 48 q 294 48 326 93 q 359 137 359 206 z m 392 -10 l 385 -10 q 373 -10 369 -6 q 365 -1 365 12 l 365 40 q 328 9 296 -5 q 264 -18 228 -18 q 135 -18 84 44 q 33 106 33 219 q 33 338 79 406 q 125 475 203 475 q 218 475 235 473 q 251 470 269 466 l 327 451 q 329 451 332 450 q 338 449 341 449 q 349 449 352 455 q 355 460 355 476 l 356 589 q 356 628 352 669 q 348 710 348 712 q 348 732 357 741 q 365 750 384 750 q 390 750 400 748 q 410 746 414 745 l 444 742 q 449 741 458 741 q 482 738 482 711 l 482 704 l 481 636 q 479 536 479 476 q 478 416 478 413 l 480 56 q 480 52 481 42 q 482 32 482 27 q 482 6 475 -1 q 469 -9 452 -9 q 449 -9 443 -8 q 437 -8 433 -8 z"},"1":{"x_min":0,"x_max":322,"ha":322,"o":"m 109 32 l 101 533 q 101 546 97 552 q 93 559 81 563 l 52 574 q 40 579 34 591 q 28 603 28 622 q 28 641 37 648 q 46 655 75 661 l 220 689 q 221 689 223 689 q 225 690 226 690 q 238 690 246 681 q 254 672 254 659 q 254 659 253 651 q 253 643 253 636 q 253 634 252 624 q 251 614 251 605 l 247 519 q 245 478 243 434 q 242 390 242 344 q 242 286 244 196 q 245 174 245 164 l 250 33 l 250 28 q 250 11 243 4 q 236 -3 220 -3 l 144 -3 q 122 -3 115 4 q 109 11 109 32 z"},"5":{"x_min":0,"x_max":602,"ha":602,"o":"m 195 519 l 191 418 l 191 407 q 191 399 193 396 q 196 394 206 394 q 213 394 245 397 q 277 401 301 401 q 428 401 502 348 q 577 295 577 208 q 577 111 502 45 q 427 -21 312 -21 q 242 -21 186 2 q 130 26 90 72 q 63 103 47 137 q 31 172 31 197 q 31 210 42 215 q 54 220 86 220 l 96 220 q 150 220 160 214 q 170 207 179 165 q 191 110 215 85 q 238 60 278 60 q 337 60 387 113 q 437 167 437 229 q 437 270 408 292 q 378 314 325 314 q 279 314 230 293 q 182 272 172 272 q 143 272 108 277 q 73 282 60 286 q 55 288 52 298 q 50 308 50 332 l 50 362 l 57 650 q 58 672 64 679 q 71 686 92 686 l 144 686 q 233 686 349 681 q 466 676 492 676 l 521 676 q 549 676 559 669 q 569 662 569 640 q 569 602 561 578 q 552 555 539 555 q 538 555 530 556 q 454 570 347 570 q 298 570 259 567 q 219 564 213 561 q 196 554 195 527 q 195 522 195 519 z"}}}
